<svg version="1.1" xmlns="http://www.w3.org/2000/svg" xmlns:xlink="http://www.w3.org/1999/xlink" width="761.46003" height="398.69485" viewBox="0,0,761.46003,398.69485"><g transform="translate(46.08498,1.18018)"><g data-paper-data="{&quot;isPaintingLayer&quot;:true}" fill="#000000" fill-rule="nonzero" stroke-linecap="butt" stroke-linejoin="miter" stroke-miterlimit="10" stroke-dasharray="" stroke-dashoffset="0" style="mix-blend-mode: normal"><path d="M-1.57658,358.67868v-358.85886h657.65766v358.85886z" stroke="#000000" stroke-width="2"/><path d="M541.05324,344.5435c20.99537,-2.98317 41.10238,-7.25733 62.94676,-7.29425c24.53842,-0.04148 49.07733,0.14282 73.61537,0c8.69579,-0.05061 16.04192,-5.19128 24.78782,0.63932c4.1524,2.76827 7.72564,6.71664 9.95749,11.18034c2.23185,4.4637 3.2466,9.69132 2.96978,14.6742c-0.99368,17.88627 -22.52234,23.48083 -36.33046,23.50614c-24.57589,0.04506 -49.171,-0.96971 -73.72779,0c-15.58285,0.61534 -31.05514,2.92705 -46.5433,4.74932c-12.84685,1.51151 -25.5538,6.74473 -38.72891,5.25068c-3.57989,0 -6.98403,-0.75245 -10.06291,-2.10781c-4.33172,-1.4795 -8.28988,-3.87514 -9.87712,-7.81027c-0.82723,-1.09199 -1.56683,-2.25404 -2.20831,-3.47568c-0.94137,0.2354 -1.87405,0.44954 -2.78826,0.64732c-34.98688,7.56901 -71.97152,1.33294 -107.44802,0.74644c-14.53647,-0.24032 -29.07705,0.06174 -43.61537,0c-3.81962,-0.01622 -7.3332,-1.70546 -11.07764,-2c-4.99258,-0.39271 -10.45229,0.44957 -15.52957,-0.4282c-4.58378,-0.79245 -9.08349,-2.15217 -13.71629,-2.5718c-10.0941,-0.91432 -18.68859,-0.11576 -28.75263,-1.08636c-13.03844,-1.25745 -26.08256,-6.78403 -39.17075,-6.91364c-21.76146,-0.2155 -43.5292,-0.42493 -65.28757,0c-12.69262,0.24788 -24.59888,3.97825 -37.46553,4c-18.53843,0.03134 -37.08297,-0.47386 -55.61537,0c-6.25015,0.15981 -12.73099,-0.06487 -18.65731,1.92727c-3.12594,1.05079 -6.31011,2.44283 -9.62645,2.87968c-7.99321,1.0529 -15.99413,2.0481 -24,3c-3.71878,0.44216 -7.63197,-0.51884 -11.25283,0.56322c-11.23609,3.35779 -26.30694,9.87124 -38.75429,7.2392c-5.09814,-1.07802 -15.23937,-5.03707 -17.1875,-10.15625c-1.48778,-3.9095 -2.69079,-7.9274 -3.78218,-11.96553c-0.95084,-3.51811 1.60192,-11.63692 2.44872,-14.77008c0.82682,-3.05922 5.44074,-6.19173 7.8126,-8.24015c4.35198,-3.75853 10.17532,-3.21535 15.27749,-4.66834c16.21398,-4.61739 33.00122,-10.14202 48.91388,-14.68849c2.34527,-0.72826 4.83844,-1.12053 7.42323,-1.12053c4.24421,0 8.2414,1.05762 11.7424,2.92369c2.03828,0.5395 4.1529,-0.79762 6.2576,-0.92369c7.33446,-0.43931 14.65232,-1.98238 22,-2c18.67991,-0.0448 37.36165,0.25414 56.03988,0c12.46943,-0.16966 24.49853,-3.97386 36.96012,-4c22.66662,-0.04755 45.33337,-0.04062 68,0c15.34066,0.02749 29.92875,6.00108 45.06263,7.33523c9.48221,0.83592 19.19083,-0.52412 28.54458,1.09296c4.58378,0.79245 9.0882,2.10307 13.71629,2.5718c4.17469,0.42282 9.33332,-0.27423 13.85553,0.17799c2.93016,0.29302 6.11958,1.74778 8.89861,1.82201c33.57369,0.89667 106.25826,1.22162 131.14566,1c7.75973,-0.0691 14.77773,-4.41391 22.71775,-2.70529c8.15394,1.75465 14.20882,7.0379 17.43016,13.64634c7.47992,-1.38405 15.14675,-1.57612 22.68202,-2.64679z" stroke="none" stroke-width="0.5"/></g></g></svg>