<svg version="1.1" xmlns="http://www.w3.org/2000/svg" xmlns:xlink="http://www.w3.org/1999/xlink" width="677.17718" height="456.45646" viewBox="0,0,677.17718,456.45646"><g transform="translate(12.83634,24.2042)"><g data-paper-data="{&quot;isPaintingLayer&quot;:true}" fill="#ed5126" fill-rule="nonzero" stroke="none" stroke-linecap="butt" stroke-linejoin="miter" stroke-miterlimit="10" stroke-dasharray="" stroke-dashoffset="0" style="mix-blend-mode: normal"><path d="M460.20937,332.59126c-2.33479,3.2698 -5.3811,5.64811 -8.80332,7.3222c-3.62942,2.05292 -7.82308,3.22467 -12.29043,3.22467c-6.61915,0.59351 -13.47256,-1.54109 -19.93711,0c-7.33519,1.74865 -13.64223,6.4297 -20.46902,9.63248c-13.74081,6.44648 -27.71981,12.77994 -41.80801,18.49876c-9.2137,3.74011 -18.82355,6.47372 -27.96409,10.38921c-6.61662,2.83433 -16.32195,8.85965 -24.68115,12.24402c-7.3167,2.9623 -14.71709,5.71986 -21.98715,8.79486c-14.66952,6.20473 -28.4945,12.00331 -43.90394,16.12961c-7.82081,2.09424 -17.67116,5.31063 -25.97627,5.39215c-19.3971,0.19039 -23.95451,0.83807 -40.59793,-3.74944c-7.14136,-1.96841 -13.44605,-7.00002 -20.04434,-10.10733c-3.57542,-1.68376 -7.75506,-1.69913 -11.31992,-3.51521c-4.87143,-2.4817 -9.56854,-5.39751 -13.88713,-8.73562c-1.59366,-1.23184 -4.80353,-2.03517 -6.49682,-3.01944c-2.09896,-1.22008 -3.73092,-3.47572 -5.78714,-4.59684c-5.27831,-2.87791 -11.1844,-4.32136 -16.46883,-6.93865c-4.68787,-2.32183 -8.65781,-5.68895 -13.60773,-7.72877c-3.43248,-1.41449 -7.2107,-2.19104 -10.59813,-3.79757c-2.75103,-1.30471 -6.51021,-3.96422 -9.59461,-5.16339c-4.90968,-1.9088 -10.05406,-3.10932 -14.73703,-5.59657c-18.72655,-9.94615 -21.74806,-33.79377 -25.05228,-52.25587c-2.14729,-11.99784 -6.26494,-25.43607 -4.88777,-37.96831c2.07671,-18.89808 17.22561,-30.03957 36.38205,-22.30775c7.36428,2.97233 12.20582,12.0492 13.30021,19.4753c1.17258,7.9567 4.39883,39.25187 8.47082,50.48338c0.33398,0.9212 1.91631,0.42154 2.85184,0.71296c1.24936,0.38918 2.47102,0.86317 3.69488,1.32637c3.73403,1.41322 6.61497,4.35349 10.34346,5.77796c3.39381,1.2966 7.24832,2.1846 10.59813,3.79757c4.83891,2.32997 8.9822,4.90264 13.66419,7.21174c2.22899,1.09931 4.97467,1.11403 7.17499,2.28295c1.64623,0.87456 3.00509,2.21131 4.57697,3.21339c3.17597,2.02468 7.40805,2.85443 10.7046,4.77064c2.11671,1.2304 3.97344,2.94293 5.78278,4.59248c2.01485,1.83692 5.76149,2.40961 8.102,4.14992c1.86654,1.38788 3.85392,3.58071 6.13563,4.4678c3.73062,1.4504 7.77394,2.0721 11.42641,3.84562c2.98301,1.44846 14.83386,9.06318 20.42583,9.37269c24.63879,1.36373 47.02374,-7.30495 69.15987,-17.27868c7.36457,-3.31821 15.57689,-5.89525 22.61734,-9.07557c7.84349,-3.54307 15.37657,-7.737 23.09394,-11.54697c9.18398,-4.53401 26.19835,-9.63173 30.30082,-11.32641c13.33327,-5.50781 26.41288,-11.61243 39.54818,-17.57697c7.54338,-3.42534 15.92982,-7.62389 23.42593,-11.15148c10.63106,-5.00285 27.89692,-3.94989 38.02553,-3.125c4.47123,0 8.6683,1.17379 12.29989,3.23003c4.37448,2.01408 8.17069,5.01112 9.29239,9.16141c2.16617,3.70159 3.40772,8.01009 3.40772,12.60856c0,3.13655 -0.57762,6.13819 -1.63228,8.90435c-0.44467,1.99787 -1.0954,3.89822 -2.27397,5.54877z" stroke-width="0.5"/><path d="M220.42192,97.41742c0,-13.80712 11.19288,-25 25,-25c13.80712,0 25,11.19288 25,25c0,13.80712 -11.19288,25 -25,25c-13.80712,0 -25,-11.19288 -25,-25z" stroke-width="0.5"/><path d="M-12.83634,432.25225v-456.45646h677.17718v456.45646z" stroke-width="0"/></g></g></svg>